#!OML:ASF X:\für Bonn\!DataBase\2005_08_10_Bjorn_Final\c3d\bjorn.ASF
:FULLY-SPECIFIED
:DEGREES
474
root -1.45224 1.55417 21.5291 -450.448 -167.594 20.5085
lowerback 18.8135 5.62533 -10.1361
upperback 22.5166 1.89976 -0.963039
thorax 13.8856 -2.96628 3.68579
lowerneck 11.0657 -8.60553 1.3387
upperneck 23.2288 -16.7595 4.38332
head 5.73758 -9.63155 0.716448
rclavicle 3.18055e-015 -3.81667e-014
rhumerus -169.805 -164.254 110.554
rradius 25.7464
rwrist -6.31049
rhand -4.81376 9.8688
rfingers 7.12502
rthumb 20.9723 -19.0173
lclavicle 3.18055e-015 -3.81667e-014
lhumerus -342.916 -18.6441 -286.117
lradius 29.3341
lwrist -21.8301
lhand -45.4398 -24.5868
lfingers 7.12502
lthumb -18.2068 4.58105
rfemur -213.474 -157.953 173.913
rtibia 82.2701
rfoot 30.507 6.49864
rtoes -13.191
lfemur -47.7769 5.21223 -28.7228
ltibia 98.5216
lfoot 26.4805 11.5498
ltoes -5.09288
475
root -1.46176 1.54898 21.5546 -450.92 -167.797 20.6055
lowerback 18.326 5.55905 -10.3656
upperback 22.3413 1.97272 -1.04393
thorax 13.9216 -2.89474 3.74314
lowerneck 11.0013 -8.45335 1.51849
upperneck 23.8883 -16.7299 4.22066
head 5.93992 -9.66196 0.602046
rclavicle 7.95139e-015 -8.5875e-014
rhumerus -169.837 -164.173 110.677
rradius 25.7702
rwrist -6.34179
rhand -4.79934 9.84682
rfingers 7.12502
rthumb 20.9862 -19.0378
lclavicle 7.95139e-015 -8.5875e-014
lhumerus -342.881 -18.6053 -285.975
lradius 29.3711
lwrist -22.0919
lhand -45.5613 -24.7109
lfingers 7.12502
lthumb -18.3237 4.44604
rfemur -212.21 -158.438 174.134
rtibia 80.5047
rfoot 29.777 6.25789
rtoes -13.3554
lfemur -47.1673 5.31127 -28.466
ltibia 98.3961
lfoot 26.4271 11.5401
ltoes -4.76672
476
root -1.47202 1.54517 21.5802 -451.354 -168.016 20.6579
lowerback 17.7423 5.48418 -10.6148
upperback 22.1869 2.04782 -1.10962
thorax 14.036 -2.8325 3.82882
lowerneck 10.8275 -8.27681 1.58339
upperneck 24.5826 -16.678 4.09098
head 6.18159 -9.68069 0.504669
rclavicle 2.22639e-014 -1.27222e-014
rhumerus -169.788 -164.19 110.827
rradius 25.8047
rwrist -6.33214
rhand -5.03412 9.89651
rfingers 7.12502
rthumb 20.7606 -19.0129
lclavicle 2.22639e-014 -1.27222e-014
lhumerus -342.774 -18.4913 -285.805
lradius 29.3665
lwrist -22.4255
lhand -45.684 -24.8543
lfingers 7.12502
lthumb -18.4417 4.29155
rfemur -210.982 -158.923 174.385
rtibia 78.7068
rfoot 29.1611 6.03193
rtoes -13.1703
lfemur -46.5879 5.43146 -28.1951
ltibia 98.2738
lfoot 26.3503 11.4916
ltoes -4.55104
477
root -1.48062 1.54235 21.6055 -451.739 -168.247 20.6837
lowerback 17.0869 5.40355 -10.887
upperback 22.0153 2.13368 -1.17254
thorax 14.1691 -2.76453 3.93365
lowerneck 10.6331 -8.08272 1.64531
upperneck 25.3085 -16.605 3.94405
head 6.43729 -9.6912 0.399133
rclavicle -2.70347e-014 3.18055e-014
rhumerus -169.726 -164.269 110.989
rradius 25.8407
rwrist -6.28493
rhand -5.47751 9.99723
rfingers 7.12502
rthumb 20.3346 -18.9582
lclavicle -2.70347e-014 3.18055e-014
lhumerus -342.64 -18.2341 -285.555
lradius 29.3017
lwrist -22.9625
lhand -45.7785 -25.0508
lfingers 7.12502
lthumb -18.5327 4.08642
rfemur -209.796 -159.398 174.674
rtibia 76.8764
rfoot 28.5694 5.66752
rtoes -12.6363
lfemur -46.0633 5.59433 -27.897
ltibia 98.1596
lfoot 26.297 11.4214
ltoes -4.28965
478
root -1.49015 1.5407 21.6307 -452.094 -168.462 20.7054
lowerback 16.3798 5.31037 -11.138
upperback 21.8434 2.2189 -1.26671
thorax 14.3366 -2.69186 3.99532
lowerneck 10.3586 -7.89699 1.73068
upperneck 26.0818 -16.5415 3.7654
head 6.71966 -9.70352 0.271232
rclavicle -3.81667e-014 5.08889e-014
rhumerus -169.63 -164.308 111.105
rradius 25.8671
rwrist -6.23418
rhand -5.91039 10.1285
rfingers 7.12502
rthumb 19.9185 -18.8707
lclavicle -3.81667e-014 5.08889e-014
lhumerus -342.454 -18.0767 -285.379
lradius 29.2483
lwrist -23.3596
lhand -45.8861 -25.1793
lfingers 7.12502
lthumb -18.6362 3.94803
rfemur -208.629 -159.843 174.962
rtibia 75.022
rfoot 28.0118 5.44101
rtoes -12.1324
lfemur -45.5608 5.72951 -27.6231
ltibia 98.0393
lfoot 26.21 11.4414
ltoes -3.87413
479
root -1.49998 1.53908 21.6556 -452.402 -168.712 20.6942
lowerback 15.8848 5.25057 -11.4397
upperback 21.1102 2.26795 -1.32174
thorax 14.7777 -2.61479 4.085
lowerneck 10.1422 -7.72381 1.82072
upperneck 26.7636 -16.4577 3.55911
head 6.96111 -9.70587 0.142922
rclavicle 2.70347e-014 -6.36111e-015
rhumerus -169.486 -164.276 111.175
rradius 25.8989
rwrist -6.06293
rhand -6.30575 10.1987
rfingers 7.12502
rthumb 19.5384 -18.8396
lclavicle 2.70347e-014 -6.36111e-015
lhumerus -342.273 -18.1415 -285.342
lradius 29.3082
lwrist -23.4758
lhand -45.9747 -25.2912
lfingers 7.12502
lthumb -18.7214 3.82786
rfemur -207.517 -160.262 175.304
rtibia 73.146
rfoot 27.4574 5.23391
rtoes -11.5822
lfemur -45.1074 5.89831 -27.3076
ltibia 97.9229
lfoot 26.1465 11.3641
ltoes -3.60867
